<svg class="icon" viewBox="0 0 1024 1024" version="1.1" xmlns="http://www.w3.org/2000/svg" xmlns:xlink="http://www.w3.org/1999/xlink" width="16" height="16">
    <defs>
        <style type="text/css"></style>
    </defs>
    <path d="M784 880h-32a16 16 0 0 0-16 16 16 16 0 0 1-16 16H304a16 16 0 0 1-16-16 16 16 0 0 0-16-16h-32a48 48 0 0 0-48 48 79.04 79.04 0 0 0 16 48 80 80 0 0 0 64 32h480a80 80 0 0 0 56.64-23.52A72.16 72.16 0 0 0 816 976a78.56 78.56 0 0 0 16-48 48 48 0 0 0-48-48z m-512 96a48 48 0 0 1-48-48 16 16 0 0 1 4.96-11.36A14.88 14.88 0 0 1 240 912h18.72a12 12 0 0 0 0.96 2.08 43.36 43.36 0 0 0 2.08 4.8 64 64 0 0 0 3.52 5.44 50.88 50.88 0 0 0 11.04 10.88 44.32 44.32 0 0 0 5.92 3.52 43.52 43.52 0 0 0 7.52 3.04 35.52 35.52 0 0 0 5.92 1.44A48 48 0 0 0 304 944h416a48 48 0 0 0 8.32 0 35.52 35.52 0 0 0 5.92-1.44 43.52 43.52 0 0 0 7.52-3.04 44.32 44.32 0 0 0 5.92-3.52 50.88 50.88 0 0 0 11.04-10.88 64 64 0 0 0 3.52-5.44 43.36 43.36 0 0 0 2.08-4.8 12 12 0 0 0 0.96-2.08H784a16 16 0 0 1 16 16 48 48 0 0 1-48 48z"
          fill="#7c1588" p-id="8093"></path>
    <path d="M720 544H304a48 48 0 0 0-48 48v304a45.6 45.6 0 0 0 3.68 18.08 43.36 43.36 0 0 0 2.08 4.8 64 64 0 0 0 3.52 5.44 50.88 50.88 0 0 0 11.04 10.88 44.32 44.32 0 0 0 5.92 3.52 43.52 43.52 0 0 0 7.52 3.04 35.52 35.52 0 0 0 5.92 1.44A48 48 0 0 0 304 944h416a48 48 0 0 0 8.32 0 35.52 35.52 0 0 0 5.92-1.44 43.52 43.52 0 0 0 7.52-3.04 44.32 44.32 0 0 0 5.92-3.52 50.88 50.88 0 0 0 11.04-10.88 64 64 0 0 0 3.52-5.44 43.36 43.36 0 0 0 2.08-4.8A45.6 45.6 0 0 0 768 896V592a48 48 0 0 0-48-48z m0 368H304a16 16 0 0 1-16-16V592a16 16 0 0 1 16-16h416a16 16 0 0 1 16 16v304a16 16 0 0 1-16 16z"
          fill="#7c1588" p-id="8094"></path>
    <path d="M482.24 447.04z m375.2 178.24a255.04 255.04 0 0 0-225.44-224 13.76 13.76 0 0 0-5.12 0 412 412 0 0 1-48 9.44l-8.48 1.12h-6.56c-6.72 0-13.44 1.28-19.68 1.6h-8.16c-2.88 0-5.6 0.96-8.8 1.44a57.28 57.28 0 0 1-6.4 0H497.92l-9.28 1.12H477.92l-8.96-0.8c-6.72 0-13.12-0.96-19.68-1.92l-20.64-3.04h-0.96c-7.04-1.28-13.76-2.72-20.32-4.32l-9.28-2.24a13.92 13.92 0 0 0-5.76 0 251.52 251.52 0 0 0-55.2 12.32 254.72 254.72 0 0 0-170.56 209.6L128 990.4a16 16 0 0 0 4 12.32A16 16 0 0 0 144 1008h736a16 16 0 0 0 11.84-5.28 16 16 0 0 0 4.16-12.32z m-366.24-208a19.84 19.84 0 0 1 3.68 2.72 22.88 22.88 0 0 0-3.84-2.56zM161.76 976l36.48-346.88a222.56 222.56 0 0 1 194.24-195.2l7.68 1.76c6.4 1.6 12.8 2.88 18.72 4h12.16l10.08 1.44 7.68 0.96h6.88l10.56 0.8h16.8l10.24 1.76 10.24 0.8h17.44a103.52 103.52 0 0 0 10.56-0.96l8.64-1.44h2.88c7.52 0 14.88-0.96 20.48-1.6H570.88l10.4-1.44h1.28l13.76-2.08h3.2l4.32-0.8a71.2 71.2 0 0 0 7.68-1.6q9.44-1.92 18.72-4.32A223.04 223.04 0 0 1 825.76 628.8L862.24 976z m379.68-528.96a16 16 0 0 1-3.2-32h-3.2c-2.88 0-5.6 0.96-8.8 1.44a57.28 57.28 0 0 1-6.4 0H496.96l-8.32-0.48h-3.2a16 16 0 0 1 12.64 16 16 16 0 0 1-16 14.4h0.8l10.24 1.76 10.24 0.8h17.44a103.52 103.52 0 0 0 10.56-0.96l8.64-1.44h1.92z m-50.4-29.92a19.84 19.84 0 0 1 3.68 2.72 22.88 22.88 0 0 0-3.68-2.72z m80 21.76h-0.8a161.6 161.6 0 0 1-25.44 7.36H544c7.52 0 14.88-0.96 20.48-1.6H571.84z"
          fill="#7c1588" p-id="8096"></path>
    <path d="M816 976a78.56 78.56 0 0 0 16-48 48 48 0 0 0-48-48h-16V592a48 48 0 0 0-48-48H304a48 48 0 0 0-48 48v288h-16a48 48 0 0 0-48 48 79.04 79.04 0 0 0 16 48h-46.24l36.48-346.88a222.56 222.56 0 0 1 194.24-195.2l7.68 1.76c6.4 1.6 12.8 2.88 18.72 4h11.52l10.08 1.44 7.68 0.96h9.28l11.68 0.96H482.4l10.24 1.76 10.24 0.8h17.44a103.52 103.52 0 0 0 10.56-0.96l8.64-1.44a9.12 9.12 0 0 0 2.88 0c7.52 0 14.88-0.96 20.48-1.6H570.24l10.4-1.44h1.28l12-1.6h1.44a73.76 73.76 0 0 0 7.52-1.28 71.2 71.2 0 0 0 7.68-1.6l11.04-2.24 7.68-2.08A223.04 223.04 0 0 1 825.76 628.8L862.24 976z"
          fill="#7c1588" opacity=".5" p-id="8097"></path>
    <path d="M667.2 217.76l-2.08-1.92A232 232 0 0 0 512 157.92h-13.92c-5.76 0-11.52 0-17.28 1.6s-13.76 2.24-20.48 3.84a230.88 230.88 0 0 0-67.2 27.2 166.88 166.88 0 0 0-16 10.24 229.6 229.6 0 0 0-18.4 14.56v0.8a16 16 0 0 0-4.8 11.36v60.8A118.72 118.72 0 0 0 352 304v6.56a46.88 46.88 0 0 0 0.8 4.64v1.6a12.48 12.48 0 0 0 0 2.24c0 1.6 0 3.2 1.12 4.96a29.6 29.6 0 0 0 0.96 4.16 29.12 29.12 0 0 0 1.12 4 14.24 14.24 0 0 0 0 2.24 7.36 7.36 0 0 0 0 1.44 27.52 27.52 0 0 0 1.12 3.36v4.8l1.76 4.16a80 80 0 0 0 3.68 8.8v0.96a96 96 0 0 0 5.12 9.92 161.92 161.92 0 0 0 16 22.72l2.72 3.04c1.44 1.76 3.04 3.52 4.64 5.12l2.4 2.72 0.8 0.96c2.24 2.24 4.48 4.48 5.92 5.6l3.52 3.04 3.52 2.88 4.96 3.84 3.2 2.4 3.04 1.92 1.6 1.12a51.84 51.84 0 0 0 6.88 4.32c3.04 1.76 6.08 3.52 9.12 4.96h2.56l8.96 3.68 1.76 0.8 6.56 2.4 3.84 1.28h2.72c4 1.12 7.84 2.08 12 2.88h4l10.24 1.76 10.24 0.8h17.44a103.52 103.52 0 0 0 10.56-0.96l8.64-1.44H539.2a161.6 161.6 0 0 0 25.44-7.36l11.36-4.8 1.6-0.8a162.56 162.56 0 0 0 31.04-20.32 106.24 106.24 0 0 0 11.52-10.88 24.48 24.48 0 0 0 8.64 0.48 161.92 161.92 0 0 0 14.08-17.28 106.4 106.4 0 0 0 5.76-8.96c1.6-2.56 3.04-5.12 4.48-7.68a156.96 156.96 0 0 0 9.44-21.12c0.96-2.72 1.92-5.6 2.72-8.16a158.24 158.24 0 0 0 6.72-46.88v-60.8a16 16 0 0 0-4.8-11.36zM640 289.92a124.48 124.48 0 0 1-5.44 36.96c0 2.24-1.44 4.48-2.4 7.2a130.88 130.88 0 0 1-38.4 54.4 124.8 124.8 0 0 1-24 16h-2.4a52 52 0 0 1-8.64 3.68 121.6 121.6 0 0 1-19.04 5.76h-4.16c-2.88 0-5.6 0.96-8.8 1.44a57.28 57.28 0 0 1-6.4 0H497.44l-8.8 0.64h-2.08l-10.08-2.4-11.36-3.84-2.4-0.96-5.28-2.24a16 16 0 0 0-3.36-1.6l-3.52-1.92-1.76-1.12-2.08-1.92h-0.8l-3.04-1.92h-0.8a2.88 2.88 0 0 0-1.12 0 30.56 30.56 0 0 1-4.64-3.2l-4.32-5.12-5.28-4.48-4.96-4.8a55.52 55.52 0 0 1-6.56-7.2 18.24 18.24 0 0 0-1.76-1.76A104 104 0 0 1 400 352a52.64 52.64 0 0 1-4.16-7.84 6.24 6.24 0 0 0-0.96-1.76c-0.8-1.92-1.6-3.84-2.24-5.6a25.12 25.12 0 0 0-1.44-3.68v-1.44a20.32 20.32 0 0 1 0-2.24 2.24 2.24 0 0 0 0-0.96v-1.44a8.32 8.32 0 0 1 0-1.76 16.8 16.8 0 0 1-0.96-3.36 13.92 13.92 0 0 0-0.8-3.52v-2.24a9.44 9.44 0 0 1 0-2.72 4.96 4.96 0 0 1 0-1.44v-2.08a61.6 61.6 0 0 1-0.96-6.72 7.84 7.84 0 0 0 0-1.92v-64.96a199.52 199.52 0 0 1 20-14.56c2.88-1.92 5.92-3.84 9.12-5.6a192 192 0 0 1 33.12-14.88l5.92-2.08a71.04 71.04 0 0 1 8.32-2.4 150.24 150.24 0 0 1 16-3.84l8.64-1.28a118.4 118.4 0 0 1 12.96-1.28h26.24a117.44 117.44 0 0 1 13.12 1.28l8.16 1.28a88.64 88.64 0 0 1 8.96 1.76l8.48 2.08a192 192 0 0 1 32 11.84l6.4 3.04 4.48 2.4a185.28 185.28 0 0 1 30.56 20.48l2.24 1.76z"
          fill="#7c1588" p-id="8098"></path>
    <path d="M745.44 334.08l-29.12-54.24c-2.72-4.96-5.6-9.92-8.64-14.56-3.04-4.48-5.92-8.96-9.12-13.12s-5.76-7.68-8.96-11.36-6.08-7.04-9.28-10.4a59.2 59.2 0 0 0-4.48-4.48 127.2 127.2 0 0 0-8.32-7.84 16 16 0 0 0-26.56 12v60.8a124.48 124.48 0 0 1-5.44 36.96c0 2.24-1.44 4.48-2.4 7.2a130.88 130.88 0 0 1-38.4 54.4 124.8 124.8 0 0 1-24 16h-2.4a52 52 0 0 1-8.64 3.68 121.6 121.6 0 0 1-19.04 5.76h-1.28a16 16 0 0 0 3.2 32h1.6c7.52 0 14.88-0.96 20.48-1.6h5.76v-5.6h0.8l1.28 5.76 10.4-1.44h1.28l12-1.6H600.8l4.32-0.8a71.2 71.2 0 0 0 7.68-1.6l11.04-2.24 7.68-2.08 3.04-0.8 17.12-4.96c5.76-1.92 11.2-3.68 16-5.6l5.76-2.24 13.76-6.08 1.6-0.8 2.56-1.28 5.44-2.88 6.4-3.84 5.76-3.68a136.48 136.48 0 0 0 11.2-8.64 6.24 6.24 0 0 0 1.6-1.28 72.48 72.48 0 0 0 22.72-32 52 52 0 0 0 2.08-7.36 34.56 34.56 0 0 0 0.8-7.36 16 16 0 0 0 0-2.72 15.04 15.04 0 0 0-1.92-10.08z m-32 14.56a43.84 43.84 0 0 1-13.92 19.36l-1.44 1.28-6.4 5.12a69.92 69.92 0 0 0-6.4 4l-4.16 2.4-4.64 2.56-2.08 0.96c-4.32 2.08-8.8 4-13.76 6.08l-4.48 1.76c-4.48 1.76-9.28 3.52-14.08 4.96s-10.08 3.04-16 4.48l2.72-1.6a161.92 161.92 0 0 0 14.08-17.28 106.4 106.4 0 0 0 5.76-8.96c1.6-2.56 3.04-5.12 4.48-7.68a156.96 156.96 0 0 0 9.44-21.12c0.96-2.72 1.92-5.6 2.72-8.16a158.24 158.24 0 0 0 6.72-46.88v-19.84l1.28 1.6c2.08 2.72 3.84 5.44 5.76 8.16s6.24 9.92 9.12 16l26.88 50.08a16 16 0 0 1-0.96 2.72z"
          fill="#7c1588" p-id="8099"></path>
    <path d="M715.04 345.12a16 16 0 0 1-0.96 3.36 43.84 43.84 0 0 1-14.56 19.52l-1.44 1.28-6.4 5.12a69.92 69.92 0 0 0-6.4 4l-4.16 2.4-4.64 2.56-2.08 0.96c-4.32 2.08-8.8 4-13.76 6.08l-4.48 1.76c-4.48 1.76-9.28 3.52-14.08 4.96s-10.08 3.04-16 4.48l2.72-1.6a161.92 161.92 0 0 0 14.08-17.28 106.4 106.4 0 0 0 5.76-8.96c1.6-2.56 3.04-5.12 4.48-7.68a156.96 156.96 0 0 0 9.44-21.12c0.96-2.72 1.92-5.6 2.72-8.16a158.24 158.24 0 0 0 6.72-46.88v-19.84l1.28 1.6q2.88 3.84 5.76 8.16c3.2 4.96 6.24 9.92 9.12 16z"
          fill="#7c1588" opacity=".5" p-id="8100"></path>
    <path d="M354.08 314.88a46.88 46.88 0 0 1-0.8-4.64 40.16 40.16 0 0 0 0 4.32 8 8 0 0 0 0 1.92s0.8-1.12 0.8-1.6zM485.44 416h-1.92l-6.72-1.76-3.36-1.12-8.32-3.04-2.4-0.96-5.28-2.24a16 16 0 0 0-3.36-1.6l-3.52-1.92-1.76-1.12-2.08-2.24h-0.8l-3.04-1.92H440.96a30.56 30.56 0 0 1-4.64-3.2l-4.32-5.12-5.28-4.48-4.96-4.8a70.08 70.08 0 0 1-6.56-7.2 18.24 18.24 0 0 0-1.76-1.76A104 104 0 0 1 400 352a52.64 52.64 0 0 1-4.16-7.84 6.24 6.24 0 0 0-0.96-1.76c-0.8-1.92-1.6-3.84-2.24-5.6a25.12 25.12 0 0 0-1.44-3.68v-1.44a20.32 20.32 0 0 1 0-2.24 2.24 2.24 0 0 0 0-0.96 12.16 12.16 0 0 1 0-1.76v-1.92a16.8 16.8 0 0 1-0.96-3.36 13.92 13.92 0 0 0-0.8-3.52v-2.24a9.44 9.44 0 0 1 0-2.72 21.76 21.76 0 0 0 0-3.2 61.6 61.6 0 0 1-0.96-6.72 7.84 7.84 0 0 0 0-1.92V229.44a16 16 0 0 0-24.96-13.12l-1.44 0.96c-3.68 3.2-7.36 6.56-10.72 10.08s-6.4 6.72-9.6 10.24l-1.92 2.24c-2.4 2.88-4.64 5.76-6.88 8.8l-2.56 3.36c-3.2 4.16-6.08 8.48-8.8 12.8s-5.92 9.6-8.64 14.72l-29.12 54.08a15.04 15.04 0 0 0-1.92 7.52 16 16 0 0 0 0 2.72 32 32 0 0 0 0.8 7.2 35.68 35.68 0 0 0 1.76 6.4 77.76 77.76 0 0 0 5.12 12.32l1.44 2.4a13.28 13.28 0 0 1 1.28 1.92 87.2 87.2 0 0 0 9.12 11.2 71.68 71.68 0 0 0 6.56 6.24l2.24 1.92 1.76 1.44 5.28 4.16 6.24 4.16 6.88 4.16 2.56 1.44 4.64 2.56 3.36 1.76h0.96c6.08 2.88 12.64 5.6 19.2 8.16s10.56 3.84 16 5.92l16 4.8 10.88 2.72c6.4 1.6 12.8 2.88 18.72 4h11.52l10.08 1.44 7.68 0.96h9.28l11.68 0.96h12.48a16 16 0 0 0 16-14.4 16 16 0 0 0-16-11.68z m-103.2-17.76c-5.12-1.6-9.92-3.36-14.56-5.12s-12.32-4.96-17.28-7.36l-2.72-1.76a33.12 33.12 0 0 0-4.48-2.4l-1.92-1.12-5.28-3.2-5.44-3.68-3.68-2.72-2.08-2.88h-0.8l-4.8-4.64a72.48 72.48 0 0 1-4.8-5.6 18.24 18.24 0 0 0-1.92-3.04 51.84 51.84 0 0 1-3.04-7.52 8 8 0 0 1 0-2.08L336 295.2c2.08-3.84 4.32-7.68 6.72-11.36a80 80 0 0 1 4.64-7.2l4.64-6.72v20.16a118.72 118.72 0 0 0 0 13.92v6.56a40.16 40.16 0 0 0 0 4.32 8 8 0 0 0 0 1.92 12.48 12.48 0 0 0 0 2.24c0 1.6 0 3.2 1.12 4.96a29.6 29.6 0 0 0 0.96 4.16 29.12 29.12 0 0 0 1.12 4 13.28 13.28 0 0 0 0 2.4 3.04 3.04 0 0 0 0 1.28 27.52 27.52 0 0 0 1.12 3.36 4.96 4.96 0 0 1 0 1.28v3.36l1.76 4.16a80 80 0 0 0 3.68 8.8v0.96a96 96 0 0 0 5.12 9.92 161.92 161.92 0 0 0 16 22.72l2.72 3.04c1.44 1.76 3.04 3.52 4.64 5.12a20.64 20.64 0 0 0 2.56 2.72z m-28.16-82.72a46.88 46.88 0 0 1-0.8-4.64 40.16 40.16 0 0 0 0 4.32 8 8 0 0 0 0 1.92s0.8-1.76 0.8-2.24z"
          fill="#7c1588" p-id="8101"></path>
    <path d="M397.76 402.08l-16-4.48c-5.12-1.6-9.92-3.36-14.56-5.12s-12.32-4.96-17.28-7.36l-2.24-1.12a33.12 33.12 0 0 0-4.48-2.4l-1.92-1.12-5.28-3.2-5.44-3.68-3.68-2.72-2.08-2.88h-0.8l-4.8-4.64a72.48 72.48 0 0 1-4.8-5.6 18.24 18.24 0 0 0-1.92-3.04 51.84 51.84 0 0 1-3.04-7.52 8 8 0 0 1 0-2.08L336 295.2c2.08-3.84 4.32-7.68 6.72-11.36s3.04-4.8 4.64-7.2c1.44-2.24 3.04-4.32 4.64-6.4v19.84a118.72 118.72 0 0 0 0 13.92v6.56a40.16 40.16 0 0 0 0 4.32 8 8 0 0 0 0 1.92 12.48 12.48 0 0 0 0 2.24c0 1.6 0 3.2 1.12 4.96a29.6 29.6 0 0 0 0.96 4.16 29.12 29.12 0 0 0 1.12 4 14.24 14.24 0 0 0 0 2.24 7.36 7.36 0 0 0 0 1.44 27.52 27.52 0 0 0 1.12 3.36v4.8l1.76 4.16a80 80 0 0 0 3.68 8.8v0.96a96 96 0 0 0 5.12 9.92 161.92 161.92 0 0 0 16 22.72l2.72 3.04c1.44 1.76 3.04 3.52 4.64 5.12z"
          fill="#7c1588" opacity=".5" p-id="8102"></path>
    <path d="M707.36 162.72l-12.96-27.52c-1.76-3.68-3.68-7.36-5.6-11.2a207.04 207.04 0 0 0-106.08-94.88 84.8 84.8 0 0 0-11.68-4 98.08 98.08 0 0 0-9.76-2.88 21.44 21.44 0 0 0-4.32-1.12l-5.28-1.12-4.32-0.96h-4.8c-5.12 0-10.08-1.28-16-1.92a197.12 197.12 0 0 0-27.52 0H496c-4.96 0-10.08 0.96-14.24 1.76a70.24 70.24 0 0 0-8.96 1.44l-6.4 1.28a21.44 21.44 0 0 0-4.32 1.12 73.6 73.6 0 0 0-8.48 2.4 106.88 106.88 0 0 0-12.16 4.16A196 196 0 0 0 336 123.04a55.52 55.52 0 0 0-4 7.36l-16 32a424 424 0 0 0-39.84 178.72 16 16 0 0 0 0 2.72 16 16 0 0 0 12 12.8 16 16 0 0 0 17.92-8l2.24-4L336 295.2c2.08-3.84 4.32-7.68 6.72-11.36a80 80 0 0 1 4.64-7.2c1.44-2.24 3.04-4.32 4.64-6.4A183.2 183.2 0 0 1 379.2 240l-11.2-11.2 12.32 10.4 3.36-2.88a199.52 199.52 0 0 1 20-14.56c2.88-1.92 5.92-3.84 9.12-5.6a192 192 0 0 1 33.12-14.88l5.92-2.08a71.04 71.04 0 0 1 8.32-2.4 150.24 150.24 0 0 1 16-3.84l8.64-1.28a118.4 118.4 0 0 1 12.96-1.28h26.24a117.44 117.44 0 0 1 13.12 1.28l8.16 1.28a88.64 88.64 0 0 1 8.96 1.76l8.48 2.08a192 192 0 0 1 32 11.84l6.4 3.04 4.48 2.4a185.28 185.28 0 0 1 30.56 20.48l2.24 1.92 2.56 2.08 2.88 2.56A188.48 188.48 0 0 1 672 269.76l1.28 1.6c2.08 2.72 3.84 5.44 5.76 8.16s6.24 9.92 9.12 16l26.88 50.08 2.24 3.84a16 16 0 0 0 14.08 8.48 16 16 0 0 0 3.84 0 16 16 0 0 0 12-12.8 16 16 0 0 0 0-2.72 423.04 423.04 0 0 0-39.84-179.68zM689.6 240c-2.88-3.68-6.08-7.04-9.28-10.4a59.2 59.2 0 0 0-4.48-4.48 127.2 127.2 0 0 0-8.32-7.84l-2.08-1.92A232 232 0 0 0 512 157.92h-13.92c-5.76 0-11.52 0-17.28 1.6s-13.76 2.24-20.48 3.84a230.88 230.88 0 0 0-67.2 27.2c-5.44 3.2-10.72 6.56-16 10.24a229.6 229.6 0 0 0-18.4 14.56l10.72 11.52-12.32-10.4c-3.68 3.2-7.36 6.56-10.72 10.08s-6.4 6.72-9.6 10.24l-1.92 2.24c-2.4 2.88-4.64 5.76-6.88 8.8l-2.56 3.36c-3.2 4.16-6.08 8.48-8.8 12.8a390.24 390.24 0 0 1 28.8-88l16-32a51.04 51.04 0 0 1 2.56-4.96 166.08 166.08 0 0 1 90.56-80 61.76 61.76 0 0 1 9.44-3.84l8.16-2.24h1.44l6.4-1.76 7.2-1.12c4.16 0 8.32-1.12 12.8-1.6a150.08 150.08 0 0 1 24 0c4.32 0 8.64 0.8 13.76 1.6h7.84c1.6 0 3.04 0 4.64 0.96h1.44l9.44 2.72a57.76 57.76 0 0 1 8.8 3.04 176 176 0 0 1 90.08 80c1.6 3.04 3.2 6.08 4.8 9.6L678.4 176a385.44 385.44 0 0 1 29.28 88.8c-3.04-4.48-5.92-8.96-9.12-13.12s-5.76-7.36-8.96-11.68z"
          fill="#7c1588" p-id="8103"></path>
    <path d="M707.68 265.12c-3.04-4.48-5.92-8.96-9.12-13.12s-5.76-7.68-8.96-11.36-6.08-7.04-9.28-10.4a59.2 59.2 0 0 0-4.48-4.48 127.2 127.2 0 0 0-8.32-7.84l-2.08-1.92A232 232 0 0 0 512 157.92h-13.92c-5.76 0-11.52 0-17.28 1.6s-13.76 2.24-20.48 3.84a230.88 230.88 0 0 0-67.2 27.2 166.88 166.88 0 0 0-16 10.24 229.6 229.6 0 0 0-18.4 14.56v0.8c-3.68 3.2-7.36 6.56-10.72 10.08s-6.4 6.72-9.6 10.24l-1.92 2.24c-2.4 2.88-4.64 5.76-6.88 8.8l-2.56 3.36c-3.2 4.16-6.08 8.48-8.8 12.8a390.24 390.24 0 0 1 27.2-87.68l16-32a51.04 51.04 0 0 1 2.56-4.96 166.08 166.08 0 0 1 90.56-80 61.76 61.76 0 0 1 9.44-3.84l8.16-2.24h1.44l6.4-1.76 7.2-1.12c4.16 0 8.32-1.12 12.8-1.6a150.08 150.08 0 0 1 24 0c4.32 0 8.64 0.8 13.76 1.6h7.84c1.6 0 3.04 0 4.64 0.96h1.44l9.44 2.72a57.76 57.76 0 0 1 8.8 3.04 176 176 0 0 1 90.08 80c1.6 3.04 3.2 6.08 4.8 9.6L678.4 176a385.44 385.44 0 0 1 29.28 89.12z"
          fill="#7c1588" opacity=".5" p-id="8104"></path>
</svg>
